<svg width="65" height="14" viewBox="0 0 65 14" fill="none" xmlns="http://www.w3.org/2000/svg">
<path d="M0.254811 0.0527344H9.10352V1.70002H5.61943V10.9861H3.70974V1.70002H0.240234L0.254811 0.0527344ZM8.7245 3.07033H10.3572V4.601H10.3864C10.4447 4.38233 10.5467 4.17824 10.6925 3.97415C10.8383 3.77007 11.0132 3.58055 11.2319 3.4202C11.436 3.24526 11.6692 3.11407 11.9316 3.01202C12.1794 2.90998 12.4418 2.85166 12.7042 2.85166C12.9083 2.85166 13.0541 2.86624 13.127 2.86624C13.1999 2.88082 13.2873 2.8954 13.3602 2.8954V4.57184C13.2436 4.54269 13.1124 4.52811 12.9812 4.51353C12.85 4.49895 12.7334 4.48438 12.6022 4.48438C12.3106 4.48438 12.0337 4.54269 11.7713 4.65931C11.5089 4.77593 11.2902 4.95086 11.0861 5.16953C10.8966 5.40277 10.7362 5.67975 10.6196 6.01504C10.503 6.35033 10.4447 6.74393 10.4447 7.18126V10.9423H8.69534L8.7245 3.07033ZM21.378 10.9861H19.6578V9.87815H19.6287C19.41 10.2863 19.0893 10.5925 18.6665 10.8403C18.2438 11.0881 17.8064 11.2047 17.3691 11.2047C16.3341 11.2047 15.576 10.9569 15.1096 10.4321C14.6431 9.92188 14.4098 9.13469 14.4098 8.09966V3.07033H16.1592V7.92473C16.1592 8.62447 16.2904 9.12011 16.5673 9.39708C16.8297 9.68864 17.2088 9.83442 17.6898 9.83442C18.0543 9.83442 18.3604 9.77611 18.6082 9.65949C18.856 9.54286 19.0601 9.39709 19.2059 9.20757C19.3663 9.01806 19.4683 8.78482 19.5412 8.52242C19.6141 8.26002 19.6432 7.96846 19.6432 7.66233V3.07033H21.3926V10.9861H21.378ZM24.3519 8.44953C24.4102 8.95975 24.5997 9.30962 24.935 9.52829C25.2703 9.73238 25.6784 9.83442 26.1449 9.83442C26.3053 9.83442 26.4948 9.81984 26.6989 9.79069C26.903 9.76153 27.1071 9.7178 27.282 9.64491C27.4715 9.57202 27.6173 9.46997 27.7339 9.32419C27.8505 9.17842 27.9088 9.00349 27.8943 8.78482C27.8797 8.56615 27.8068 8.37664 27.6464 8.23086C27.4861 8.08508 27.2966 7.98304 27.0633 7.881C26.8301 7.79353 26.5531 7.72064 26.247 7.66233C25.9408 7.60402 25.6347 7.53113 25.314 7.45824C24.9933 7.38535 24.6726 7.29789 24.3664 7.19584C24.0603 7.0938 23.7979 6.9626 23.5501 6.77309C23.3168 6.59815 23.1128 6.37949 22.9816 6.10251C22.8358 5.82553 22.7629 5.50482 22.7629 5.09664C22.7629 4.65931 22.8649 4.30944 23.0836 4.01789C23.2877 3.72633 23.5647 3.49309 23.8854 3.31815C24.2061 3.14322 24.5705 3.01202 24.9641 2.93913C25.3577 2.86624 25.7368 2.83709 26.0866 2.83709C26.4948 2.83709 26.8884 2.88082 27.2528 2.96829C27.6173 3.05576 27.9672 3.18695 28.2587 3.39104C28.5648 3.58055 28.8127 3.84295 29.0022 4.14909C29.2063 4.45522 29.3229 4.83424 29.3812 5.27158H27.559C27.4715 4.84882 27.282 4.57184 26.9904 4.42607C26.6843 4.28029 26.349 4.2074 25.9554 4.2074C25.8388 4.2074 25.6784 4.22197 25.5181 4.23655C25.3432 4.26571 25.1974 4.29487 25.037 4.35318C24.8912 4.41149 24.76 4.49895 24.658 4.601C24.556 4.70304 24.4976 4.84882 24.4976 5.02375C24.4976 5.24242 24.5705 5.40277 24.7163 5.53397C24.8621 5.66517 25.0516 5.76722 25.2994 5.86927C25.5327 5.95673 25.8096 6.02962 26.1158 6.08793C26.4219 6.14624 26.7426 6.21913 27.0633 6.29202C27.384 6.36491 27.6902 6.45237 27.9963 6.55442C28.3024 6.65646 28.5794 6.78767 28.8127 6.97718C29.0459 7.15211 29.25 7.37078 29.3958 7.63318C29.5416 7.89558 29.6144 8.23086 29.6144 8.60989C29.6144 9.07637 29.5124 9.46998 29.2937 9.80526C29.0751 10.126 28.7981 10.403 28.4628 10.607C28.1275 10.8111 27.7339 10.9569 27.3257 11.059C26.903 11.1464 26.4948 11.2047 26.0866 11.2047C25.591 11.2047 25.1245 11.1464 24.7017 11.0298C24.279 10.9132 23.9 10.7382 23.5938 10.5196C23.2877 10.2863 23.0399 10.0094 22.8649 9.65949C22.69 9.3242 22.588 8.91602 22.5734 8.43495H24.3373V8.44953H24.3519ZM30.1101 3.07033H31.4367V0.679577H33.186V3.05575H34.7604V4.35318H33.186V8.58073C33.186 8.77024 33.2006 8.91602 33.2152 9.0618C33.2297 9.193 33.2735 9.30962 33.3172 9.39708C33.3755 9.48455 33.463 9.55744 33.565 9.60118C33.6816 9.64491 33.8274 9.67407 34.0315 9.67407C34.1481 9.67407 34.2793 9.67406 34.396 9.65949C34.5126 9.64491 34.6438 9.63033 34.7604 9.60118V10.9569C34.5709 10.9861 34.3814 11.0006 34.1919 11.0152C34.0023 11.0444 33.8274 11.0444 33.6233 11.0444C33.1568 11.0444 32.7924 11.0006 32.5154 10.9132C32.2384 10.8257 32.0198 10.6945 31.8594 10.5342C31.6991 10.3592 31.597 10.1551 31.5387 9.90731C31.4804 9.65948 31.4512 9.35335 31.4367 9.03264V4.36775H30.1101V3.04118V3.07033ZM35.9849 3.07033H37.6322V4.14909H37.6614C37.9092 3.6826 38.2445 3.36189 38.6818 3.1578C39.1191 2.95371 39.5856 2.85166 40.1104 2.85166C40.7373 2.85166 41.2767 2.95371 41.7431 3.18696C42.2096 3.40562 42.5887 3.69718 42.8948 4.09078C43.2009 4.4698 43.4342 4.92171 43.5799 5.43193C43.7257 5.94215 43.8132 6.49611 43.8132 7.06464C43.8132 7.60402 43.7403 8.11424 43.6091 8.60989C43.4633 9.10553 43.2592 9.55744 42.9823 9.93646C42.7053 10.3155 42.3554 10.6216 41.9181 10.8549C41.4808 11.0881 40.9851 11.2047 40.402 11.2047C40.1542 11.2047 39.8918 11.1756 39.6439 11.1318C39.3961 11.0881 39.1483 11.0152 38.9151 10.9132C38.6818 10.8111 38.4632 10.6799 38.2736 10.5196C38.0695 10.3592 37.9092 10.1697 37.778 9.96562H37.7488V13.9162H35.9995V3.07033H35.9849ZM42.093 7.03549C42.093 6.68562 42.0493 6.33575 41.9472 6.00046C41.8598 5.66518 41.714 5.37362 41.5245 5.11122C41.335 4.84882 41.1017 4.64473 40.8393 4.48438C40.5624 4.32402 40.2416 4.25113 39.8918 4.25113C39.1629 4.25113 38.6089 4.49896 38.2299 5.00918C37.8655 5.5194 37.6759 6.20456 37.6759 7.05007C37.6759 7.45824 37.7197 7.82268 37.8217 8.15797C37.9238 8.49326 38.055 8.78482 38.2591 9.03264C38.4486 9.28046 38.6818 9.46997 38.9588 9.61575C39.2358 9.76153 39.5419 9.83442 39.9063 9.83442C40.3145 9.83442 40.6352 9.74695 40.9122 9.5866C41.1892 9.42624 41.4079 9.20757 41.5974 8.95975C41.7723 8.69735 41.9035 8.4058 41.9764 8.07051C42.0493 7.72064 42.093 7.38535 42.093 7.03549ZM45.1689 0.0527344H46.9183V1.70002H45.1689V0.0527344ZM45.1689 3.07033H46.9183V10.9861H45.1689V3.07033ZM48.4781 0.0527344H50.2274V10.9861H48.4781V0.0527344ZM55.5629 11.2047C54.936 11.2047 54.3675 11.1027 53.8719 10.884C53.3762 10.6654 52.968 10.3884 52.6182 10.0239C52.2829 9.65949 52.0205 9.20757 51.8455 8.69735C51.6706 8.18713 51.5686 7.6186 51.5686 7.02091C51.5686 6.42322 51.656 5.86927 51.8455 5.35904C52.0205 4.84882 52.2829 4.41149 52.6182 4.03246C52.9535 3.66802 53.3762 3.37647 53.8719 3.17238C54.3675 2.96829 54.936 2.85166 55.5629 2.85166C56.1897 2.85166 56.7583 2.95371 57.2539 3.17238C57.7495 3.37647 58.1577 3.66802 58.5076 4.03246C58.8429 4.39691 59.1053 4.84882 59.2802 5.35904C59.4551 5.86927 59.5572 6.42322 59.5572 7.02091C59.5572 7.63318 59.4697 8.18713 59.2802 8.69735C59.0907 9.20757 58.8429 9.64491 58.5076 10.0239C58.1723 10.3884 57.7495 10.6799 57.2539 10.884C56.7583 11.0881 56.2043 11.2047 55.5629 11.2047ZM55.5629 9.81984C55.9419 9.81984 56.2918 9.73237 56.5687 9.57202C56.8603 9.41166 57.079 9.193 57.2685 8.9306C57.458 8.6682 57.5892 8.36206 57.6767 8.04135C57.7641 7.70606 57.8079 7.37078 57.8079 7.02091C57.8079 6.68562 57.7641 6.35033 57.6767 6.01504C57.5892 5.67975 57.458 5.3882 57.2685 5.1258C57.079 4.8634 56.8457 4.65931 56.5687 4.49896C56.2772 4.3386 55.9419 4.25113 55.5629 4.25113C55.1838 4.25113 54.834 4.3386 54.557 4.49896C54.2655 4.65931 54.0468 4.87798 53.8573 5.1258C53.6678 5.3882 53.5366 5.67975 53.4491 6.01504C53.3616 6.35033 53.3179 6.68562 53.3179 7.02091C53.3179 7.37078 53.3616 7.70606 53.4491 8.04135C53.5366 8.37664 53.6678 8.6682 53.8573 8.9306C54.0468 9.193 54.28 9.41166 54.557 9.57202C54.8486 9.74695 55.1838 9.81984 55.5629 9.81984ZM60.082 3.07033H61.4086V0.679577H63.1579V3.05575H64.7323V4.35318H63.1579V8.58073C63.1579 8.77024 63.1725 8.91602 63.1871 9.0618C63.2016 9.193 63.2454 9.30962 63.2891 9.39708C63.3474 9.48455 63.4349 9.55744 63.5369 9.60118C63.6535 9.64491 63.7993 9.67407 64.0034 9.67407C64.12 9.67407 64.2512 9.67406 64.3679 9.65949C64.4845 9.64491 64.6157 9.63033 64.7323 9.60118V10.9569C64.5428 10.9861 64.3533 11.0006 64.1638 11.0152C63.9743 11.0444 63.7993 11.0444 63.5952 11.0444C63.1287 11.0444 62.7643 11.0006 62.4873 10.9132C62.2103 10.8257 61.9917 10.6945 61.8313 10.5342C61.671 10.3592 61.5689 10.1551 61.5106 9.90731C61.4523 9.65948 61.4231 9.35335 61.4086 9.03264V4.36775H60.082V3.04118V3.07033Z" fill="black"/>
</svg>
